<?xml version="1.0" encoding="UTF-8"?>
<svg id="Layer_1" data-name="Layer 1" xmlns="http://www.w3.org/2000/svg" viewBox="0 0 5536.311 5536.311">
  <defs>
    <style>
      .cls-1 {
        fill: #fff;
      }

      .cls-1, .cls-2 {
        stroke-width: 0px;
      }

      .cls-2 {
        fill: #3351ff;
      }
    </style>
  </defs>
  <path class="cls-1" d="M1473.107,3092.239h1052.528c123.119,0,222.927-99.808,222.927-222.927h-1052.529c-123.119,0-222.927,99.808-222.927,222.927Z"/>
  <path class="cls-2" d="M2748.562,2869.312v9.728h248.267c123.119,0,222.927-99.808,222.927-222.927h0s-381.841,0-381.841,0c-49.348,0-89.352-40.004-89.352-89.352v302.552Z"/>
  <path class="cls-1" d="M2112.45,2442.913c-123.119,0-222.927,99.808-222.927,222.927h769.687c49.347,0,89.352,40.005,89.352,89.353v-312.279h-636.113Z"/>
  <path class="cls-2" d="M2971.489,1803.315c-123.119,0-222.927,99.808-222.927,222.927h0s998.997,0,998.997,0c123.119,0,222.927-99.808,222.927-222.927h-998.997Z"/>
  <path class="cls-2" d="M2748.562,2442.913v9.728h582.58c123.119,0,222.927-99.808,222.927-222.927h-716.155c-49.348,0-89.352-40.004-89.352-89.352v302.551Z"/>
  <path class="cls-1" d="M2748.562,2016.514h-248.267c-123.12,0-222.927,99.808-222.927,222.927h0s381.842,0,381.842,0c49.347,0,89.352,40.004,89.352,89.352v-302.551h0v-9.728Z"/>
</svg>