<?xml version="1.0" encoding="UTF-8"?>
<svg id="Layer_1" data-name="Layer 1" xmlns="http://www.w3.org/2000/svg" viewBox="0 0 2888.947 1295.489">
  <defs>
    <style>
      .cls-1, .cls-2, .cls-3 {
        stroke-width: 0px;
      }

      .cls-2 {
        fill: #3026f9;
      }

      .cls-3 {
        fill: #3351ff;
      }
    </style>
  </defs>
  <g>
    <g>
      <path class="cls-1" d="M182.97,1044.654v34.35H0v-228.991h181.211v34.35H35.773v62.809h125.792v34.347H35.773v63.136h147.197Z"/>
      <path class="cls-1" d="M371.182,1079.003l-62.454-86.364-62.457,86.364h-46.622l86.499-117.438-80.34-111.553h43.395l59.525,80.803,59.522-80.803h43.395l-80.34,111.553,86.499,117.438h-46.622Z"/>
      <path class="cls-1" d="M625.659,1044.654v34.35h-182.97v-228.991h181.211v34.35h-145.438v62.809h125.792v34.347h-125.792v63.136h147.197Z"/>
      <path class="cls-1" d="M753.765,843.797c38.704,0,74.478,17.664,96.468,49.398l-28.149,25.514c-15.539-22.244-42.222-35.982-67.147-35.982-51.898,0-77.995,40.889-77.995,81.781s26.097,81.783,77.995,81.783c28.735,0,52.194-15.048,67.147-36.312l28.149,25.189c-22.577,31.404-59.522,50.049-96.468,50.049-53.074,0-114.941-40.238-114.941-120.711s62.161-120.711,114.941-120.711Z"/>
      <path class="cls-1" d="M878.639,850.012h35.773v138.377c0,39.581,32.546,59.536,65.095,59.536s65.095-19.955,65.095-59.536v-138.377h35.773v138.377c0,65.751-50.435,98.793-100.868,98.793s-100.868-33.042-100.868-98.793v-138.377Z"/>
      <path class="cls-1" d="M1331.621,850.012v33.696h-96.761v195.295h-36.066v-195.295h-96.468v-33.696h229.296Z"/>
      <path class="cls-1" d="M1356.509,850.012h35.773v228.991h-35.773v-228.991Z"/>
      <path class="cls-1" d="M1523.63,1082.276l-104.092-232.264h37.822l84.157,184.83,84.157-184.83h38.118l-104.388,232.264h-35.773Z"/>
      <path class="cls-1" d="M1873.983,1044.654v34.35h-182.97v-228.991h181.211v34.35h-145.438v62.809h125.792v34.347h-125.792v63.136h147.197Z"/>
      <path class="cls-2" d="M2153.376,1044.654v34.35h-182.97v-228.991h181.211v34.35h-145.438v62.809h125.792v34.347h-125.792v63.136h147.197Z"/>
      <path class="cls-2" d="M2363.584,1044.654v34.35h-179.159v-228.991h35.773v194.641h143.386Z"/>
      <path class="cls-2" d="M2391.403,850.012h35.773v228.991h-35.773v-228.991Z"/>
      <path class="cls-2" d="M2681.095,850.012v33.696h-96.761v195.295h-36.066v-195.295h-96.474v-33.696h229.301Z"/>
      <path class="cls-2" d="M2888.947,1044.654v34.35h-182.97v-228.991h181.211v34.35h-145.438v62.809h125.792v34.347h-125.792v63.136h147.197Z"/>
    </g>
    <g>
      <path class="cls-1" d="M585.418,1206.013v12.765h-40.897v73.984h-15.243v-73.984h-40.773v-12.765h96.913Z"/>
      <path class="cls-1" d="M655.409,1206.013h50.934c18.836,0,28.132,13.013,28.132,25.9,0,10.784-6.322,21.441-19.087,24.91l28.38,35.939h-19.084l-25.9-34.823h-28.256v34.823h-15.119v-86.75ZM670.527,1244.803h33.087c10.04,0,15.122-6.319,15.122-12.765s-5.082-12.886-15.122-12.886h-33.087v25.652Z"/>
      <path class="cls-1" d="M853.418,1204.773h15.119l44.119,87.99h-16.111l-7.187-14.127h-56.76l-7.187,14.127h-15.987l43.995-87.99ZM839.165,1265.623h43.623l-21.81-42.879-21.813,42.879Z"/>
      <path class="cls-1" d="M983.636,1206.013h15.119l60.847,67.169v-67.169h15.122v86.75h-15.122l-60.847-67.169v67.169h-15.119v-86.75Z"/>
      <path class="cls-1" d="M1223.405,1228.072c-6.691-6.443-20.821-10.409-33.087-10.409-11.897,0-22.185,3.842-22.185,12.889,0,19.209,64.196,3.718,64.196,38.541,0,18.588-19.953,26.396-40.897,26.396-16.852,0-34.575-4.955-43.375-13.507l8.552-11.773c6.691,7.063,22.306,11.401,35.939,11.401,12.641,0,23.546-3.718,23.546-12.393,0-20.325-64.072-4.586-64.072-38.913,0-18.96,18.219-26.523,37.924-26.523,15.739,0,32.47,4.834,41.639,12.517l-8.179,11.773Z"/>
      <path class="cls-1" d="M1305.916,1206.013h46.472c18.712,0,28.132,13.879,28.132,27.76s-9.42,27.76-28.132,27.76h-31.354v31.23h-15.119v-86.75ZM1321.035,1248.396h30.114c9.544,0,14.377-7.311,14.377-14.623s-4.834-14.623-14.377-14.623h-30.114v29.245Z"/>
      <path class="cls-1" d="M1494.137,1295.117c-22.554,0-48.953-14.995-48.953-45.728s26.399-45.731,48.953-45.731c22.678,0,49.077,14.998,49.077,45.731s-26.399,45.728-49.077,45.728ZM1494.137,1217.911c-15.367,0-33.462,10.409-33.462,31.478s18.095,31.478,33.462,31.478c15.491,0,33.586-10.409,33.586-31.478s-18.095-31.478-33.586-31.478Z"/>
      <path class="cls-1" d="M1616.919,1206.013h50.931c18.839,0,28.135,13.013,28.135,25.9,0,10.784-6.319,21.441-19.087,24.91l28.383,35.939h-19.087l-25.903-34.823h-28.253v34.823h-15.119v-86.75ZM1632.038,1244.803h33.09c10.034,0,15.119-6.319,15.119-12.765s-5.085-12.886-15.119-12.886h-33.09v25.652Z"/>
      <path class="cls-1" d="M1859.298,1206.013v12.765h-40.892v73.984h-15.248v-73.984h-40.768v-12.765h96.908Z"/>
      <path class="cls-1" d="M2092.112,1279.75v13.013h-75.718v-86.75h15.119v73.736h60.599Z"/>
      <path class="cls-1" d="M2239.066,1279.75v13.013h-75.718v-86.75h15.119v73.736h60.599Z"/>
      <path class="cls-1" d="M2348.725,1203.657c16.359,0,31.478,6.694,40.773,18.715l-11.9,9.665c-6.567-8.428-17.841-13.631-28.377-13.631-21.934,0-32.966,15.491-32.966,30.982s11.032,30.982,32.966,30.982c12.142,0,22.058-5.699,28.377-13.755l11.9,9.541c-9.544,11.897-25.158,18.96-40.773,18.96-22.43,0-48.581-15.243-48.581-45.728s26.275-45.731,48.581-45.731Z"/>
    </g>
  </g>
  <g>
    <path class="cls-1" d="M771.227,694.939h567.483c66.381,0,120.194-53.812,120.194-120.194h-567.484c-66.381,0-120.194,53.812-120.194,120.194Z"/>
    <path class="cls-3" d="M1458.905,574.745v5.245h133.856c66.381,0,120.194-53.812,120.194-120.194h0s-205.874,0-205.874,0c-26.606,0-48.175-21.569-48.175-48.175v163.124Z"/>
    <path class="cls-1" d="M1115.937,344.847c-66.381,0-120.194,53.812-120.194,120.194h414.986c26.606,0,48.175,21.569,48.175,48.176v-168.369h-342.968Z"/>
    <path class="cls-3" d="M1579.099,0c-66.381,0-120.194,53.812-120.194,120.194h0s538.621,0,538.621,0c66.381,0,120.194-53.813,120.194-120.194h-538.621Z"/>
    <path class="cls-3" d="M1458.905,344.847v5.245h314.105c66.381,0,120.194-53.812,120.194-120.194h-386.124c-26.606,0-48.175-21.569-48.175-48.175v163.124Z"/>
    <path class="cls-1" d="M1458.905,114.949h-133.856c-66.382,0-120.194,53.812-120.194,120.194h0s205.875,0,205.875,0c26.606,0,48.175,21.569,48.175,48.175V120.194h0v-5.245Z"/>
  </g>
</svg>